<svg xmlns="http://www.w3.org/2000/svg" fill="none" viewBox="0 0 176 52"><path fill="#fff" d="m7.7653 23.3826 2.6454-1.3088 4.1813-6.2819 1.28-.5234 1.3654 6.3691-1.792.2617-1.3654-2.6174-1.024 4.1007h4.5227l4.6933 1.2214 1.8774-1.2214 3.1573 3.3154 1.3653-6.1074 2.2187 2.2685 1.3653-1.9195 2.2187-.6107 3.2427-3.0537.512-1.4833 2.6453.4363 1.1094 1.4832-1.9627 4.1879 4.864-2.5302v-1.2215l1.8773-.4362 2.048 2.094 2.048-2.5302v-1.745l3.328-2.3557 1.3654-2.0067h2.1333l3.7547-7.7651L64.6828 0l1.1946 1.9195-1.8773 2.443.6827 1.5704 1.792.349 1.4506 6.4564v5.4093l2.56 3.5772 1.28 4.9732-4.4373-2.8792-1.9627-8.2886-1.1947.2617-.1706 5.5839-3.2427 5.3222-.9387 8.1141 2.2187.5235.9387-1.1343 2.1333 2.443 1.6213 7.3289-.1706 4.7114h-2.048l-.768-6.6309-1.4507 2.0067-3.1573-.698-2.56-2.1812-2.9014 1.047.1707 4.7114-2.304.6107-3.4133 2.6175-4.096-.5235-1.6214-.9597-2.56.4362.8534 1.047-2.048 1.2215-1.6214-.7853L33.9627 52l-4.6933-2.3557-1.792-4.1879-1.536.1745-1.792-1.4832-.0854-1.1343-5.7173-.6107-.9387 3.1409-3.584-1.6577-1.792-3.0537h-3.84l-.4267 4.8859-2.2186.698-1.1094 4.4497-.8533-.7853L0 40.745l4.2667-2.094-.6827-4.1007-.6827-4.1879 1.8774-2.7047L4.1813 26l2.56-2.7919 1.024.1745Zm56.7468 10.2953 3.9253 5.9328 1.28-.5235-1.6213-2.4429-3.584-3.8389v.8725ZM24.4054 21.6376v-1.745l2.9866-2.1812 2.56-1.3087h-2.9866L24.32 17.9732l-1.6213 1.4832v2.1812h1.7067ZM89.8314 41.0004h4.7232v-5.1818h2.6164c3.967 0 6.626-2.3437 6.626-6.1022 0-3.716-2.591-6.1705-6.4561-6.1705h-7.5095v17.4545Zm4.7232-8.8636V27.33h1.665c1.6565 0 2.6504.8864 2.6504 2.3864 0 1.4914-.9939 2.4204-2.6504 2.4204h-1.665ZM111.604 41.2391c4.247 0 6.762-2.7273 6.762-6.75s-2.515-6.75-6.762-6.75c-4.248 0-6.762 2.7273-6.762 6.75s2.514 6.75 6.762 6.75Zm.034-3.4773c-1.257 0-2.005-1.2528-2.005-3.3068 0-2.054.748-3.3068 2.005-3.3068 1.189 0 1.937 1.2528 1.937 3.3068 0 2.054-.748 3.3068-1.937 3.3068ZM126.555 41.2391c3.865 0 6.235-2.2245 6.286-5.6932h-4.349c-.102 1.3722-.841 2.1136-1.869 2.1136-1.232 0-2.039-1.0568-2.039-3.2045s.807-3.2046 2.039-3.2046c1.036 0 1.741.7415 1.869 2.1137h4.349c-.025-3.4091-2.446-5.625-6.286-5.625-4.247 0-6.762 2.7273-6.762 6.75s2.515 6.75 6.762 6.75ZM141.062 41.2391c3.866 0 6.236-2.2245 6.287-5.6932h-4.35c-.102 1.3722-.841 2.1136-1.869 2.1136-1.231 0-2.038-1.0568-2.038-3.2045s.807-3.2046 2.038-3.2046c1.037 0 1.742.7415 1.869 2.1137h4.35c-.026-3.4091-2.447-5.625-6.287-5.625-4.247 0-6.762 2.7273-6.762 6.75s2.515 6.75 6.762 6.75ZM153.701 35.0004v-7.0909h-4.418v13.0909h4.418l3.636-7.125v7.125h4.417V27.9095h-4.417l-3.636 7.0909ZM171.651 41.0004H176V27.9095h-6.116c-3.764 0-6.142 1.9091-6.117 4.5682-.017 1.4915.875 2.7273 2.438 3.4602l-2.574 5.0625h4.316l2.2-4.3295h1.504v4.3295Zm0-7.159h-1.665c-1.249 0-1.827-.6137-1.801-1.1932-.026-.5455.518-1.2273 1.699-1.2273h1.767v2.4205Z"/></svg>